<svg xmlns="http://www.w3.org/2000/svg" viewBox="0 0 64 64" fill="none">
  <path d="M27.6 46.4L29 22.3H35L36.4 46.4L35.3 51H28.7L27.6 46.4Z" fill="#0D1B2A"/>
  <rect x="24.6" y="47.2" width="14.8" height="4.35" rx="2.18" fill="#0D1B2A"/>
  <rect x="30.55" y="16.85" width="2.9" height="3.4" rx="1.45" fill="#0D1B2A"/>
  <rect x="18.5" y="8.5" width="27" height="10.5" rx="5.25" stroke="#0D1B2A" stroke-width="2"/>
  <ellipse cx="32" cy="13.75" rx="4.65" ry="3.05" stroke="#0D1B2A" stroke-width="1.85"/>
  <circle cx="32" cy="13.75" r="1.38" fill="#0D1B2A"/>
  <path d="M23 25C25.35 29.15 28.38 31.25 32 31.25C35.62 31.25 38.65 29.15 41 25" stroke="#0D1B2A" stroke-width="2" stroke-linecap="round" stroke-linejoin="round"/>
  <path d="M19 28.35C22.1 34 26.42 36.95 32 36.95C37.58 36.95 41.9 34 45 28.35" stroke="#0D1B2A" stroke-width="2" stroke-linecap="round" stroke-linejoin="round"/>
  <path d="M15 31.7C18.95 38.8 24.52 42.3 32 42.3C39.48 42.3 45.05 38.8 49 31.7" stroke="#0D1B2A" stroke-width="2" stroke-linecap="round" stroke-linejoin="round"/>
</svg>
